<svg xmlns="http://www.w3.org/2000/svg" viewBox="0 0 539.47 116.12"><defs><style>.cls-1{fill:#14120e;}</style></defs><g id="katman_2" data-name="katman 2"><g id="katman_1-2" data-name="katman 1"><path class="cls-1" d="M110.33,25.35c-1.19-.35-4.18-1.9-4.63-3-2-5.07-3.86-10.17-5.82-15.25a13.35,13.35,0,0,1,2.38-3.8,32,32,0,0,1,4.91-.79c19.52-.73,39-2.26,58.52-2.47,3.05,0,7.92.94,8.61,4.12s-1.93,13.7-2.68,17.4c-.31,1.53-1,2.65-2.76,2.54-8.46-.49-16.85-1.85-25.31-1.58-10.29.32-20.68,1.78-30.84,3.09A4.64,4.64,0,0,1,110.33,25.35Zm3-7.88C124.19,17,135,15.38,145.93,15c4.17-.17,8.38.19,12.59.16a35.54,35.54,0,0,0,2-8.69A61.2,61.2,0,0,0,144.34,5c-11.09.43-22.25.65-33.22,2.49-.82.14-1.33,1-1.72,1.64Q111.15,13.4,113.29,17.47Z"/><path class="cls-1" d="M190.21,110.46c-.13-.12-.32-.21-.4-.37a8.34,8.34,0,0,1-.73-3.16c.68-21.33,1.24-42.72,2.37-64.06.3-5.55.61-11.08,1.17-16.6a2,2,0,0,1,.75-1.16c15-2.05,31.45-3.24,46.66-4,4.68-.23,9.65,0,13.45,2.61,4.36,3,9.14,8.7,13.45,12.33,3.38,2.86,4.93,4.84,4,9.22a78.77,78.77,0,0,1-3.88,11.87,2.12,2.12,0,0,1-.8.93c-4.54,3.12-9.6,5.52-14.35,8.3a2.79,2.79,0,0,0-1.1,3.74c6.51,3.69,13.25,7.06,20.08,10.11a4.06,4.06,0,0,1,2.31,3,8.22,8.22,0,0,1-.87,4.74c-3.18,6.07-6.49,12.07-9.58,18.19-.81,1.62-2.84,1.93-4.52,2.12-7.2.84-15.44-.47-22.93.07-.4,0-1.18.32-1.58.33-12.15.41-24.25,1.61-36.38,2.32C195.68,111.07,191.51,111.45,190.21,110.46Zm23.85-11.57c1-.15,2-.3,3-.5,5-1,9.94-1,15-.89a4.18,4.18,0,0,0,2.32-1c2.1-7.36,3.64-15.56,2.78-23.21-9,.15-17.94.57-26.76,2.4C211,83.41,211.49,91.55,214.06,98.89Zm1-38.48a24.27,24.27,0,0,0,7.61,0c5.32-1.38,10.48-2.91,15.82-4.2a3.41,3.41,0,0,0,2.7-3c.43-3.87.76-7.8,1.3-11.66a7.88,7.88,0,0,0-3.21-1.8c-4.54-.69-8.94-1.76-13.45-2.51-4.29-.73-8.55-.57-12.9-.57A127,127,0,0,0,213.12,50,99.89,99.89,0,0,0,215,60.41Z"/><path class="cls-1" d="M286.45,105.71c-1.24-11.22-3.31-22.32-4.24-33.57-1.43-22.19-1-46.1-1.36-68.47a143,143,0,0,1,24,1.84,44.27,44.27,0,0,1,4.51,1.11,7.55,7.55,0,0,1,.89,2.24,97.94,97.94,0,0,1,.18,15q-2,32.05-4.67,64.05a4.12,4.12,0,0,0,2.26,1c8.87-.65,17.93-.23,26.83-.31,1.94,3.78,1.19,5.31-.54,8.86-14.65,2.72-29,4.18-43.69,7.19C289.31,104.92,287.75,105.38,286.45,105.71Z"/><path class="cls-1" d="M350.84,103.59c-3.7-6.74-7.2-13.67-9-21.17-2-9-2.69-19.22-4.26-28.47a44.59,44.59,0,0,1,.73-19.78A113.13,113.13,0,0,1,343,22.31c.86-2,3.23-3.11,5.35-3.18,11.07-.32,22.16-.84,33.22-1.15,5.56-.16,11.06.65,16.61.81,2.32.07,5.15.4,7.11,1.59,3.29,2,7.76,13,9.4,17a7.06,7.06,0,0,1,.36,1.7,4.28,4.28,0,0,1-2.6,1.58c1.36,1.87,3.43,3.85,3.62,6.22.49,6.28,1,12.69.34,19-.88,9-3.33,18.6-4.62,27.69-.31,2.18-3.39,4.78-4.91,6.26s-1.44,1.76-3.16,1.81c-15,.43-29.24.27-44.29,1.45Q355.16,103.35,350.84,103.59Zm17-17.45c.53-.11,1.34-.25,1.93-.41,5.3-1.4,11.32-3.34,16.61-4.34,2.85-.55,5.84-.53,8.69-1.11a4.36,4.36,0,0,0,1.89-1c-1.85-10.29-3.59-20.74-6.25-30.85a85,85,0,0,0-5.77-14.72c-5.33,2.23-10.8,4.35-16,7a157,157,0,0,0-15.35,9.42,20.77,20.77,0,0,0,1,7C357.88,66.32,361.83,78.47,367.81,86.14Z"/><path class="cls-1" d="M508.14,112.3c-12.24-10-24.56-20.55-38.34-28.32-4.42,4.1-9.37,13.6-12.22,19-5.11-2.4-14.73-3.78-20.62-5.54-4.83-1.45-9.59-3-14.41-4.4a9.6,9.6,0,0,1,1.68-2.86c6.85-8.06,13.3-16.54,19.84-24.84.41-.52.8-1.09,1.22-1.6a4,4,0,0,0-.47-1.14,30.92,30.92,0,0,0-4.29-4c-6.36-5-12.75-10-19.29-14.81l-.13-2.72c9.28-3.85,19.1-6.62,28.65-9.79,1.32,1.35,3.18,5.26,4.23,6.76,2.45,3.5,5.71,6.68,8.57,9.86,6.58-6.37,12.72-13.07,19.48-19.19,4.18-3.78,8.93-7.09,13.44-10.46a3,3,0,0,1,.9-.38c8.27,1.68,17.06,3.12,25.2,5.18a2.61,2.61,0,0,1,.92.48l2.8,3.81c-4.11,4.36-6.85,4.89-10.89,8.28s-8,6.76-11.82,10.3c-5.48,5.06-11.6,10.25-16.39,15.85a11.57,11.57,0,0,0-1,1.54c1.59.82,3.12,1.54,4.74,2.33,9.38,4.59,19.65,8.8,29.26,12.84,6.3,2.65,14.29,7.74,20.26,11.31-11.15,7.49-20.57,14.25-31.05,22.65Z"/><path class="cls-1" d="M51.49,116.12c-7.74-15.16-15.31-30.39-23-45.59l-9.63-.25-2,4.43C20.41,83.8,24,92.88,27,102.18a10.44,10.44,0,0,1-.06,4.31c-.42,0-.84,0-1.25-.08q-8.33-.87-16.6-1.91a2.56,2.56,0,0,1-1.84-2.32C5,77.92,2.43,53.68.17,29.43,0,27.74,0,26,0,24.27a14.48,14.48,0,0,1,5.15-1.62c22.67-2.24,45.35-4.43,68-6.72,1.26-.12,1.8.34,2.83,1L89.64,59.26c-2.86,3-5.66,6-8.56,8.87a2.28,2.28,0,0,1-1.59.34c-12.63-.37-25.32-.26-38-.53a10.27,10.27,0,0,0-1.57.11,1.73,1.73,0,0,0,0,2.45C53.34,83.21,67.65,95.34,81.08,108c.33.32,2.56,3.73,2.83,4.25-10.2-.52-20.59,1.15-30.52,3.54C52.76,115.94,52.12,116,51.49,116.12Zm-31.86-58a16.54,16.54,0,0,0,4.5-.15c6.81-1.42,13.7-2,20.57-2.93a19.07,19.07,0,0,0,3.16-1.7c1-1,1.36-.65,1.42-2.52.09-3.73.24-7.49.47-11.19-.2-.24-.43-.44-.64-.67a15.81,15.81,0,0,0-3.62-2.4c-9-1-18.11-1.83-27.13-1.53a7.19,7.19,0,0,0-1.26,3.14C17.83,44.79,18.59,51.46,19.63,58.08Z"/><path class="cls-1" d="M107.17,99.72c-3.16-1.46-5.63-4.42-8-7-3.07-3.3-5.39-7.41-5.27-11.94a68.67,68.67,0,0,1,1.7-14.23c.48-2,2.36-3.2,3.93-4.37-.7-2-2.1-3.78-1.89-5.91a87.4,87.4,0,0,1,5.51-21.44c1.38-3.13,15-4.05,18.23-4.09,11.08-.09,22.15.34,33.22.31a49.18,49.18,0,0,1,11.07,1.56,8.39,8.39,0,0,1,2.18,3.1c4.44,13.3,8.49,26.33,13.26,39.54a23.23,23.23,0,0,1,1.26,7.12c0,2.83-.39,9.33-1.51,11.86-1.3,3-6.09,3.71-8.86,3.83-15.31.63-30.55,1.11-45.87,1.73C120.64,100,112,101.61,107.17,99.72Zm13.45-11.47.17.1c8.64-3.78,17.83-6.21,26.71-9.39a45,45,0,0,0,5.5-2.57c-1.36-4.81-2.16-9.79-3.63-14.53a9.38,9.38,0,0,0-4.24-5.24c-3.46-2.15-10.87-3.38-15-3.8s-8.44-1-12.66-1.47a4.1,4.1,0,0,0-2.06.5,3.37,3.37,0,0,0-.61,1.3c-.88,7.14-1.36,17.51,0,24.52a28.19,28.19,0,0,0,3,7.91A5.64,5.64,0,0,0,120.62,88.25Z"/></g></g></svg>